<svg id="Lager_1" data-name="Lager 1" xmlns="http://www.w3.org/2000/svg" viewBox="0 0 519.19 707.82"><defs><style>.cls-1{fill:#8e4a72;}.cls-2{fill:#fff;}.cls-3{fill:#77395d;}.cls-4,.cls-6{fill:#8cc63f;}.cls-5{fill:none;}.cls-6{stroke:#fff;stroke-miterlimit:10;}.cls-7{fill:#534741;}</style></defs><title>logo3</title><path class="cls-1" d="M737.78,863.42a255.61,255.61,0,0,1-74.46-11A71.23,71.23,0,0,1,628.93,861a88.92,88.92,0,0,1-39.15-9.42c-36.86-12.21-69.16-39.8-96-82a314.33,314.33,0,0,1-33-69.28l0-.11a11.44,11.44,0,0,1-.44-1.68,661.92,661.92,0,0,1-15.94-96.13c-6.63-72.66.49-130.7,21.14-172.51,1.85-4.66,25.95-63.9,70.18-98.42,2.31-1.94,33.1-26.94,86.51-26.94,23.24,0,47.41,4.81,71.84,14.3a35.43,35.43,0,0,0,12.71,2c19.9,0,44.5-10.3,44.74-10.4l.2-.08c4.64-1.73,11.54-2.57,21.11-2.57a281.27,281.27,0,0,1,32.69,2.3l.18,0,.18,0c44,9.29,80,44.86,104.26,102.87,46.1,110.22,41.12,283.79-10.44,364.16C854.38,848.45,786.63,863.42,737.78,863.42Z" transform="translate(-427.55 -160.61)"/><path class="cls-2" d="M622.23,309.52c20.17,0,43.64,3.71,70,14a40.46,40.46,0,0,0,14.52,2.33c21.19,0,46.69-10.8,46.69-10.8,4.53-1.69,11.75-2.25,19.36-2.25a281.43,281.43,0,0,1,32,2.25c144.32,30.5,163.16,346.4,90.64,459.44-43.38,68.26-107.69,84-157.71,84-42.7,0-75-11.44-75-11.44a66.29,66.29,0,0,1-33.87,9,83.63,83.63,0,0,1-37.16-9c-85.61-28.05-122.38-136.06-126.19-148.17-.28-1.06-44.42-168.11,4.54-266.9,0,0,24.18-61.84,68.76-96.57,0,0,30.18-25.82,83.35-25.82m-157,388.18.33,1.1c-.23-.72-.34-1.1-.33-1.1m.33,1.1h0M622.24,299.52v0c-54.5,0-86.52,25.45-89.64,28.05-44.68,34.89-69.19,94.2-71.62,100.28-11.61,23.58-19.08,52.63-22.21,86.37-2.49,26.78-2.26,56.62.67,88.7a666,666,0,0,0,16,96.68c.15.77.35,1.45.51,2h0v0l.06.18h0a319.78,319.78,0,0,0,33.52,70.47c12.12,19.05,25.63,35.46,40.15,48.78,17.89,16.41,37.44,28.23,58.12,35.15a94.8,94.8,0,0,0,41.1,9.8,76.19,76.19,0,0,0,34.88-8.2,264.15,264.15,0,0,0,74,10.61c50.11,0,119.6-15.37,166.15-88.6,24.75-38.58,40.25-101.33,42.52-172.14a553.27,553.27,0,0,0-6.08-102.17c-5.43-35-14-66.79-25.61-94.45-24.92-59.59-62.21-96.19-107.84-105.83l-.37-.08-.37,0a290.14,290.14,0,0,0-33.35-2.34c-10.18,0-17.65.94-22.86,2.89l-.2.07-.2.09c-.23.09-23.94,10-42.79,10a30.58,30.58,0,0,1-10.89-1.65c-25-9.71-49.8-14.64-73.65-14.64Z" transform="translate(-427.55 -160.61)"/><path class="cls-3" d="M645.74,859a149.78,149.78,0,0,1-68.84-16.72c-40.93-20.92-69.88-58-87-85.49-18.17-29.19-26.9-53.3-27.49-55-.87-2.28-15.24-40.84-20.81-96.16-5.21-51.63-3.23-127.9,35.74-198,12-21.55,34.27-61.67,82.48-83a155.7,155.7,0,0,1,63.39-13.08,185.45,185.45,0,0,1,59,9.87l6.42,2.18-4,5.49c-32.32,44.57-105.09,165-82.78,320.18C612,720,641,788.29,685.55,846.89l4.72,6.2-7.6,1.7A169.26,169.26,0,0,1,645.74,859Z" transform="translate(-427.55 -160.61)"/><path class="cls-2" d="M623.25,316.59a180.16,180.16,0,0,1,57.35,9.61C659.17,355.74,572.76,481.92,596.92,650c13.9,96.63,58.31,165.27,84.65,199.89a163.4,163.4,0,0,1-35.83,4.1,144.47,144.47,0,0,1-66.56-16.17c-77.27-39.5-112-137.73-112-137.73s-59.61-156.48,14.61-290c14.9-26.81,36.28-61.45,80.13-80.84a150.85,150.85,0,0,1,61.37-12.66m0-10v0a160.76,160.76,0,0,0-65.42,13.51,154.06,154.06,0,0,0-54.39,40.19c-13,14.84-22.33,30.37-30.44,44.94-17.52,31.53-29.21,66.88-34.74,105.08a393.89,393.89,0,0,0-1.6,95.87c5.6,55.55,20,94.54,21.09,97.38.75,2.09,9.67,26.51,27.94,55.89a289.24,289.24,0,0,0,36.16,47.12c16.4,17.14,34.16,30.66,52.78,40.18A154.86,154.86,0,0,0,645.74,864a174.24,174.24,0,0,0,38-4.34L699,856.26l-9.44-12.4c-44.07-57.92-72.67-125.44-82.71-195.26-22.05-153.39,49.91-272.46,81.88-316.53l8-11-12.84-4.36a190.35,190.35,0,0,0-60.57-10.14Z" transform="translate(-427.55 -160.61)"/><path class="cls-4" d="M525,333.26c-22.81,0-44.45-1.32-60.95-3.72-25.39-3.7-30.06-8.58-31.27-12.87-.62-2.19-.76-6.41,5.27-10.12,11.5-7.08,20.85-24.52,31.68-44.72,11.27-21,24.05-44.83,42.9-63.56,22.13-22,48.37-32.66,80.21-32.66,2,0,4,0,6,.12,39.55,1.64,65.59,12.33,77.39,31.77,11.29,18.6,5.91,39.29,2.93,47.62,4.24,3.44,12,10.06,16.66,16.15l1.17,1.52-2.45,32.83L686.46,280a20.21,20.21,0,0,0-1.77-2.76,27.5,27.5,0,0,1-3.18,15.14c-7.57,14.36-28.33,25.23-61.7,32.32-26.16,5.55-59.82,8.61-94.76,8.61Z" transform="translate(-427.55 -160.61)"/><path class="cls-2" d="M592.87,170.61c1.91,0,3.83,0,5.79.12,108,4.47,74.51,76,74.51,76s12.48,9.48,18.72,17.59l-1,13.33c-4.63-8.94-18.47-18.25-18.47-18.25,35.71,52.11-66.65,68.86-147.38,68.86-55.07,0-100.06-7.78-84.35-17.45,38-23.41,49.52-140.19,152.17-140.2m0-10h0c-33.23,0-60.62,11.16-83.73,34.11-19.39,19.26-32.35,43.43-43.78,64.75-10.05,18.75-19.55,36.45-29.9,42.82C426,308.09,427.37,315.8,428,318c2.4,8.48,12.31,13.1,35.36,16.45,16.73,2.44,38.64,3.78,61.69,3.78,35.28,0,69.3-3.09,95.8-8.72,15.74-3.34,29-7.59,39.29-12.61,12.55-6.11,21.22-13.6,25.79-22.27.42-.79.82-1.64,1.2-2.53l11.11,21.46,2.63-35.19,1-13.33.29-3.81-2.33-3c-4.15-5.39-10.3-11-14.83-14.81,3.16-10.55,6.55-30.38-4.46-48.52-12.72-21-40.13-32.45-81.46-34.16-2.07-.09-4.16-.13-6.19-.13Z" transform="translate(-427.55 -160.61)"/><path class="cls-5" d="M686.23,312.43s-216.08,257-9.2,535.7" transform="translate(-427.55 -160.61)"/><path class="cls-6" d="M656.56,241.51S565.4,201.16,482.2,296" transform="translate(-427.55 -160.61)"/><path class="cls-2" d="M900.31,338.47" transform="translate(-427.55 -160.61)"/><path class="cls-7" d="M700,309c0-.22-.84-22.88,0-44,.92-22.92,23.44-44.84,24.4-45.76l.71-.68.92-.36a46.12,46.12,0,0,1,14.95-3c7.77,0,11.84,3.2,13.88,5.89,3.62,4.76,4.12,11.58,1.54,20.86-7,25.37-18.82,32.35-24.76,34.28-4.12,13.1.87,27.12.92,27.27l2.08,5.71-6,.95-28.43,4.46Z" transform="translate(-427.55 -160.61)"/><path class="cls-2" d="M741,220.21c7.75,0,15.23,3.78,10.61,20.42C743.16,271.12,727.91,272,727.91,272c-6.45,15.78,0,33.26,0,33.26L705,308.82s-.85-22.45,0-43.63,22.87-42.35,22.87-42.35A41.29,41.29,0,0,1,741,220.21m0-10a50.83,50.83,0,0,0-16.78,3.33l-1.84.72L721,215.63a110.88,110.88,0,0,0-12.36,14.67c-8.58,12.14-13.14,23.75-13.57,34.49-.86,21.32,0,43.47,0,44.4l.43,11.25,11.12-1.75,22.87-3.58,12-1.89-4.22-11.45c0-.09-3.9-11.11-1.43-21.87,7.48-3.42,18.7-12.49,25.4-36.6,3-10.74,2.18-19.22-2.38-25.23-2.73-3.58-8-7.86-17.86-7.86Z" transform="translate(-427.55 -160.61)"/><path class="cls-2" d="M694.4,311.7" transform="translate(-427.55 -160.61)"/><path class="cls-2" d="M319.69,724.73" transform="translate(-427.55 -160.61)"/></svg>