<svg id="Lager_1" data-name="Lager 1" xmlns="http://www.w3.org/2000/svg" viewBox="0 0 504.21 692.82"><defs><style>.cls-1{fill:#8e4a72;stroke-width:6px;}.cls-1,.cls-2,.cls-3,.cls-5{stroke:#fff;stroke-miterlimit:10;}.cls-2{fill:#77395d;stroke-width:12px;}.cls-3,.cls-5{fill:#8cc63f;}.cls-3{stroke-width:4px;}.cls-4{fill:none;}.cls-6{fill:#fff;}.cls-7{fill:#534741;}</style></defs><title>plumupdate</title><path class="cls-1" d="M692.26,323.48c21.48,8.35,61.21-8.47,61.21-8.47,13.6-5.08,51.38,0,51.38,0,144.32,30.5,163.16,346.4,90.64,459.44C815.08,901,662.8,847,662.8,847c-34.76,20.33-71,0-71,0-95.7-31.36-130.37-162.64-126.19-148.17,0,0-44.58-167.79,4.54-266.9,0,0,24.18-61.84,68.76-96.57C538.88,335.34,596.3,286.21,692.26,323.48Z" transform="translate(-435.53 -168.61)"/><path class="cls-2" d="M681.57,849.91c-40.08,9-74.09,2.41-102.39-12.07-77.27-39.5-112-137.73-112-137.73s-59.61-156.48,14.61-290c14.9-26.81,36.28-61.45,80.13-80.84C614.6,305.93,665.22,321,680.6,326.2,659.17,355.74,572.76,481.92,596.92,650,610.82,746.65,655.23,815.29,681.57,849.91Z" transform="translate(-435.53 -168.61)"/><path class="cls-3" d="M690.9,277.65c-4.63-8.94-18.47-18.25-18.47-18.25C732.5,347.07,402,334.65,440.7,310.81s49.92-144.55,158-140.08,74.51,76,74.51,76,12.48,9.48,18.72,17.59Z" transform="translate(-435.53 -168.61)"/><path class="cls-4" d="M686.23,312.43s-216.08,257-9.2,535.7" transform="translate(-435.53 -168.61)"/><path class="cls-5" d="M656.56,241.51S565.4,201.16,482.2,296" transform="translate(-435.53 -168.61)"/><path class="cls-6" d="M900.31,338.47" transform="translate(-435.53 -168.61)"/><path class="cls-7" d="M724.49,231s-22,21.18-22.87,42.36,0,43.62,0,43.62l22.87-3.59s-6.45-17.47,0-33.26c0,0,15.25-.85,23.72-31.34S724.49,231,724.49,231Z" transform="translate(-435.53 -168.61)"/><path class="cls-6" d="M694.4,311.7" transform="translate(-435.53 -168.61)"/><path class="cls-6" d="M319.69,724.73" transform="translate(-435.53 -168.61)"/></svg>